<svg width="24" height="24" viewBox="0 0 24 24" fill="none" xmlns="http://www.w3.org/2000/svg">
<path d="M5 13H11V9H5V13ZM5 7H19V5H5V7ZM14 22C13.7167 22 13.4792 21.9042 13.2875 21.7125C13.0958 21.5208 13 21.2833 13 21V19.75C13 19.4833 13.0542 19.2292 13.1625 18.9875C13.2708 18.7458 13.4167 18.5333 13.6 18.35L18.525 13.425C18.675 13.275 18.8417 13.1667 19.025 13.1C19.2083 13.0333 19.3917 13 19.575 13C19.775 13 19.9667 13.0375 20.15 13.1125C20.3333 13.1875 20.5 13.3 20.65 13.45L21.575 14.375C21.7083 14.525 21.8125 14.6917 21.8875 14.875C21.9625 15.0583 22 15.2417 22 15.425C22 15.6083 21.9667 15.7958 21.9 15.9875C21.8333 16.1792 21.725 16.35 21.575 16.5L16.65 21.425C16.4667 21.6083 16.2542 21.75 16.0125 21.85C15.7708 21.95 15.5167 22 15.25 22H14ZM5 21C4.45 21 3.97917 20.8042 3.5875 20.4125C3.19583 20.0208 3 19.55 3 19V5C3 4.45 3.19583 3.97917 3.5875 3.5875C3.97917 3.19583 4.45 3 5 3H19C19.55 3 20.0208 3.19583 20.4125 3.5875C20.8042 3.97917 21 4.45 21 5V10.175C21 10.4583 20.9042 10.6958 20.7125 10.8875C20.5208 11.0792 20.2833 11.175 20 11.175C19.7167 11.175 19.4792 11.0792 19.2875 10.8875C19.0958 10.6958 19 10.4583 19 10.175V9H13V13H14.9C15.1333 13 15.2917 13.1 15.375 13.3C15.4583 13.5 15.4167 13.6833 15.25 13.85L11.85 17.25C11.6833 17.4167 11.5 17.4583 11.3 17.375C11.1 17.2917 11 17.1333 11 16.9V15H5V19H10C10.2833 19 10.5208 19.0958 10.7125 19.2875C10.9042 19.4792 11 19.7167 11 20C11 20.2833 10.9042 20.5208 10.7125 20.7125C10.5208 20.9042 10.2833 21 10 21H5ZM14.5 20.5H15.45L18.475 17.45L17.55 16.525L14.5 19.55V20.5ZM18.025 16.975L17.55 16.525L18.475 17.45L18.025 16.975Z" fill="#5A6372"/>
</svg>
